<?xml version="1.0" encoding="utf-8"?>
<!-- Generator: Adobe Illustrator 18.1.1, SVG Export Plug-In . SVG Version: 6.00 Build 0)  -->
<!DOCTYPE svg PUBLIC "-//W3C//DTD SVG 1.1//EN" "http://www.w3.org/Graphics/SVG/1.1/DTD/svg11.dtd">
<svg version="1.1" xmlns="http://www.w3.org/2000/svg" xmlns:xlink="http://www.w3.org/1999/xlink" x="0px" y="0px"
	 viewBox="0 0 1200 1200" enable-background="new 0 0 1200 1200" xml:space="preserve">
<g id="Layer_9">
	<polygon fill="none" stroke="#052764" stroke-width="2" stroke-linejoin="round" stroke-miterlimit="10" points="362.9,610.4 
		163.6,677.2 346,879.7 	"/>
	<polygon fill="none" stroke="#052764" stroke-width="2" stroke-linejoin="round" stroke-miterlimit="10" points="218.8,1005.1 
		163.6,677.2 346,879.7 	"/>
	<polygon fill="none" stroke="#052764" stroke-width="2" stroke-linejoin="round" stroke-miterlimit="10" points="218.8,1005.1 
		472.1,1008.7 346,879.7 	"/>
	<polygon fill="none" stroke="#052764" stroke-width="2" stroke-linejoin="round" stroke-miterlimit="10" points="519.1,745.8 
		472.1,1008.7 346,879.7 	"/>
	<polygon fill="none" stroke="#052764" stroke-width="2" stroke-linejoin="round" stroke-miterlimit="10" points="519.1,745.8 
		472.1,1008.7 650.1,745.8 	"/>
	<polygon fill="none" stroke="#052764" stroke-width="2" stroke-linejoin="round" stroke-miterlimit="10" points="623.6,1039.9 
		472.1,1008.7 650.1,745.8 	"/>
	<polygon fill="none" stroke="#052764" stroke-width="2" stroke-linejoin="round" stroke-miterlimit="10" points="623.6,1039.9 
		792.3,697 650.1,745.8 	"/>
	<polygon fill="none" stroke="#052764" stroke-width="2" stroke-linejoin="round" stroke-miterlimit="10" points="565.6,493.5 
		792.3,697 650.1,745.8 	"/>
	<polygon fill="none" stroke="#052764" stroke-width="2" stroke-linejoin="round" stroke-miterlimit="10" points="565.6,493.5 
		792.3,697 565.6,426.4 	"/>
	<polygon fill="none" stroke="#052764" stroke-width="2" stroke-linejoin="round" stroke-miterlimit="10" points="565.6,493.5 
		339.3,422.9 565.6,426.4 	"/>
	<polygon fill="none" stroke="#052764" stroke-width="2" stroke-linejoin="round" stroke-miterlimit="10" points="519.1,745.8 
		362.9,610.4 650.1,745.8 	"/>
	<polygon fill="none" stroke="#052764" stroke-width="2" stroke-linejoin="round" stroke-miterlimit="10" points="565.6,493.5 
		362.9,610.4 650.1,745.8 	"/>
	<polygon fill="none" stroke="#052764" stroke-width="2" stroke-linejoin="round" stroke-miterlimit="10" points="565.6,493.5 
		362.9,610.4 339.3,422.9 	"/>
	<polygon fill="none" stroke="#052764" stroke-width="2" stroke-linejoin="round" stroke-miterlimit="10" points="163.6,677.2 
		362.9,610.4 269.5,535.6 	"/>
	<polygon fill="none" stroke="#052764" stroke-width="2" stroke-linejoin="round" stroke-miterlimit="10" points="163.6,677.2 
		200.6,419.5 269.5,535.6 	"/>
	<polygon fill="none" stroke="#052764" stroke-width="2" stroke-linejoin="round" stroke-miterlimit="10" points="297,281 
		200.6,419.5 269.5,535.6 	"/>
	<polygon fill="none" stroke="#052764" stroke-width="2" stroke-linejoin="round" stroke-miterlimit="10" points="362.9,610.4 
		519.1,745.8 346,879.7 	"/>
</g>
<g id="Base">
	<path fill="#0D439B" d="M781.3,844.7l-29.5-40.3l-43.2-72.7l-0.2-11.8l19-22.6l31.5-71.8l2.9-18.3l9,2.3l24.6-56l0.7-47l20.6-40.4
		l10.4-82.8l-45.4-88.9v0l-4.3-13.4l-68.3-32.2l0,0l-33-18.6l-79,1.5l-50.9,4.3l-11.5,0.8L438.9,313l-29.7,118.8l6.7,74.7L393,529.8
		l31.2,18l-1.2,13l16.3,49.6l18,7.2l6.7-13.3l4.4,21.3l14,29.6l-0.2,19.7l-17.2,52.3l-15,38.2l-86.9,58.4L272,861.2l163.5,54
		l-1.4,26.4l60.9-70.6l112.7,94.2l16.7,48.1l-5.5-55.4l7.6-4.3l0,0l24.7-14l33.1-18.8l2.7,51.5l-2.9,110.1L785,992.2l96.7-115
		L781.3,844.7z"/>
</g>
<g id="Neck_-_Shades">
	<polygon fill="#07224E" points="482.8,625.2 481.6,742.6 539.8,680.5 	"/>
	<polygon fill="#052764" points="490.3,788.4 481.6,742.6 539.8,680.5 	"/>
	<polygon fill="#1F55A3" points="490.3,788.4 538.1,859.2 531.1,741.4 	"/>
	<polygon fill="#1F55A3" points="586.3,858 538.1,859.2 531.1,741.4 	"/>
	<polygon fill="#0D439B" points="586.3,858 538.1,859.2 546.1,887.1 	"/>
	<polygon fill="#0D439B" points="586.3,858 610.1,910.8 546.1,887.1 	"/>
	<polygon fill="#0A3274" points="490.3,788.4 539.8,680.5 531.1,741.4 	"/>
	<polygon fill="#1F55A3" points="586.3,858 539.8,680.5 531.1,741.4 	"/>
	<polygon fill="#3D69AF" points="586.3,858 539.8,680.5 679.8,751.2 	"/>
	<polygon fill="#3D69AF" points="586.3,858 610.1,910.8 679.8,751.2 	"/>
	<polygon fill="#6E8EC3" points="709.4,791.9 610.1,910.8 679.8,751.2 	"/>
	<polygon fill="#6E8EC3" points="706,908.3 610.1,910.8 619,957.9 	"/>
	<polygon fill="#0D439B" points="546.1,887.1 610.1,910.8 619,957.9 	"/>
	<polygon fill="#6E8EC3" points="706,908.3 610.1,910.8 709.4,791.9 	"/>
	<polygon fill="#3D69AF" points="709.4,791.9 707.8,685.4 679.8,751.2 	"/>
	<polygon fill="#0D439B" points="640,928.6 626.6,953.6 683.7,921 	"/>
</g>
<g id="SHIRT_-_SHADES">
	<polygon fill="#0A3274" points="687.1,972.2 684.1,1082.3 785,992.2 724.3,882.5 	"/>
	<polygon fill="#0A3274" points="781.3,844.7 781.7,884.2 797.9,927.3 783,913.4 785,992.2 881.7,877.2 	"/>
	<polygon fill="#052764" points="724.3,882.5 731.6,865 783,913.4 785,992.2 	"/>
	<polygon fill="#0D439B" points="481.9,710.8 465.1,727.2 495.1,871 494.9,736.8 	"/>
	<polygon fill="#07224E" points="481.9,710.8 465.1,727.2 482.4,674.5 	"/>
	<polygon fill="#0A3274" points="442.6,784.3 465.1,727.2 495.1,871 434.1,941.6 	"/>
	<polygon fill="#0A3274" points="537.6,840.4 495.1,871 494.9,736.8 	"/>
	<polygon fill="#052764" points="537.6,840.4 495.1,871 619,957.9 	"/>
	<polygon fill="#07224E" points="607.8,965.2 495.1,871 619,957.9 	"/>
	<polygon fill="#07224E" points="607.8,965.2 624.5,1013.3 619,957.9 	"/>
	<polygon fill="#052764" points="450.1,765.5 363.1,823.8 435.6,915.2 442.6,784.3 	"/>
	<polygon fill="#07224E" points="272,861.2 435.6,915.2 363.1,823.8 	"/>
	<polygon fill="#07224E" points="683.7,908.9 708.4,827.8 708.8,753 731.6,865 	"/>
	<polygon fill="#0A3274" points="708.3,731.4 708.8,753 731.6,865 751.8,804.5 	"/>
	<polygon fill="#0D439B" points="797.9,927.3 731.6,865 751.8,804.5 	"/>
	<polygon fill="#052764" points="731.6,865 683.7,908.9 687.1,972.2 	"/>
	<polygon fill="#052764" points="781.3,844.7 751.8,804.5 781.7,884.2 	"/>
</g>
<g id="Ear_-_Shades">
	<polygon fill="#3D69AF" points="459.9,478.1 431.3,473.5 423,560.7 468.7,514.2 	"/>
	<polygon fill="#6E8EC3" points="439.2,610.3 423,560.7 468.7,514.2 	"/>
	<polygon fill="#1F55A3" points="439.2,610.3 457.3,617.6 481.4,570.1 	"/>
	<polygon fill="#3D69AF" points="439.2,610.3 468.7,514.2 481.4,570.1 	"/>
	<polygon fill="#6E8EC3" points="746.9,514 781.8,469.6 796.3,491 	"/>
	<polygon fill="#6E8EC3" points="746.9,514 795.4,553.6 796.3,491 	"/>
	<polygon fill="#3D69AF" points="738.5,563.6 795.4,553.6 770.8,609.6 	"/>
	<polygon fill="#6E8EC3" points="738.5,563.6 795.4,553.6 746.9,514 	"/>
	<polygon fill="#0A3274" points="738.5,563.6 750.7,604.4 770.8,609.6 	"/>
</g>
<g id="Face_-_Shades">
	<polygon fill="#0D439B" points="753.6,475 773.8,390.8 718.4,456.6 	"/>
	<polygon fill="#B3C7E0" points="614.1,504.2 598.2,509.6 542.3,571.2 510.5,575.5 536.5,641.4 517.6,657.7 529.2,680.7 
		563.5,704.6 596.1,721.1 630.2,720.2 649.7,723 678.9,719 722.3,668.5 742.7,604.6 681.2,567.7 637.1,505.6 	"/>
	<polygon fill="#0D439B" points="569.7,513.5 542.3,571.2 504.1,541.1 	"/>
	<polygon fill="#0A3274" points="569.7,513.5 549.3,515 504.1,541.1 	"/>
	<polygon fill="#052764" points="492.6,513.7 549.3,515 504.1,541.1 	"/>
	<polygon fill="#052764" points="492.6,513.7 474.5,518.2 504.1,541.1 	"/>
	<polygon fill="#0A3274" points="569.7,513.5 592.1,466.4 549.3,515 	"/>
	<polygon fill="#07224E" points="492.6,513.7 501.1,466.2 549.3,515 	"/>
	<polygon fill="#07224E" points="501.1,466.2 492.6,513.7 465.8,522.6 457,488.6 	"/>
	<polygon points="451.8,490.1 458.1,538.3 465.8,522.6 457,488.6 	"/>
	<polygon fill="#07224E" points="481,553.2 458.1,538.3 465.8,522.6 	"/>
	<polygon fill="#052764" points="458.1,538.3 471.9,597.5 481,553.2 	"/>
	<polygon fill="#0A3274" points="507.1,606 471.9,597.5 481,553.2 	"/>
	<polygon fill="#052764" points="476.4,622.7 507.1,606 471.9,597.5 471.9,597.5 	"/>
	<polygon fill="#07224E" points="476.4,622.7 507.1,606 490,671.1 	"/>
	<polygon fill="#052764" points="517.6,657.7 507.1,606 490,671.1 	"/>
	<polygon fill="#07224E" points="517.6,657.7 509.9,695.2 490,671.1 	"/>
	<polygon fill="#052764" points="517.6,657.7 509.9,695.2 529.2,680.7 	"/>
	<polygon fill="#0A3274" points="517.6,657.7 540.6,669.8 529.2,680.7 	"/>
	<polygon fill="#052764" points="563.5,704.6 540.6,669.8 529.2,680.7 	"/>
	<polygon fill="#052764" points="569.7,513.5 598.2,509.6 592.1,466.4 	"/>
	<polygon fill="#052764" points="569.7,513.5 598.2,509.6 542.3,571.2 	"/>
	<polygon fill="#CFD9EB" points="614.1,504.2 601.5,573.9 626.6,561.9 643.3,586.3 660.2,605.2 676.5,614.5 681.2,567.7 
		637.1,505.6 	"/>
	<polygon fill="#B3C7E0" points="637.1,505.6 645.1,464.3 718.4,456.6 753.6,475 770.4,487.6 770.9,508.2 758.9,625.6 742.7,604.6 
		681.2,567.7 	"/>
	<polygon fill="#3D69AF" points="652.2,476.7 645.1,464.3 650,451.7 	"/>
	<polygon fill="#031127" points="722,471.5 700.5,479 679,480 	"/>
	<polygon fill="#052764" points="755.8,465.7 722,471.5 718.4,456.6 	"/>
	<polygon fill="#07224E" points="755.8,465.7 722,471.5 747.6,485.9 766.8,475 	"/>
	<polygon fill="#031127" points="700.5,479 722,471.5 747.6,485.9 	"/>
	<polygon fill="#3D69AF" points="700.5,479 684.1,490.1 705.5,491 	"/>
	<polygon fill="#3D69AF" points="700.5,479 747.6,485.9 705.5,491 	"/>
	<polygon fill="#6E8EC3" points="730.8,503.9 755.6,494.3 747.6,485.9 705.5,491 	"/>
	<polygon fill="#6E8EC3" points="657.9,497.9 637.1,505.6 650.7,483.2 	"/>
	<polygon fill="#6E8EC3" points="755.6,494.3 742.7,604.6 770.9,508.2 	"/>
	<polygon fill="#1F55A3" points="755.6,494.3 747.6,485.9 766.8,475 770.9,508.2 	"/>
	<polygon fill="#0D439B" points="770.4,487.6 770.4,479.8 770.9,508.2 	"/>
	<polygon fill="#07224E" points="777,511.5 759.8,546 770.9,508.2 	"/>
	<polygon fill="#052764" points="766.8,475 773.8,390.8 770.9,508.2 	"/>
	<polygon fill="#07224E" points="777,511.5 770.9,508.2 773.8,390.8 781.7,465.8 	"/>
	<polygon fill="#07224E" points="758.9,625.6 756.5,593 777,511.5 	"/>
	<polygon fill="#0A3274" points="756.5,593 742.7,604.6 759.8,546 777,511.5 	"/>
	<polygon fill="#0A3274" points="758.9,625.6 742.7,604.6 722.3,668.5 	"/>
	<polygon fill="#052764" points="758.9,625.6 727.4,697.4 722.3,668.5 	"/>
	<polygon fill="#031127" points="707,721.6 727.4,697.4 722.3,668.5 	"/>
	<polygon fill="#07224E" points="707,721.6 678.9,719 722.3,668.5 	"/>
	<polygon fill="#031127" points="707,721.6 678.9,719 689.1,740 	"/>
	<polygon points="662.6,771.7 678.9,719 689.1,740 	"/>
	<polygon fill="#07224E" points="662.6,771.7 678.9,719 649.7,723 	"/>
	<polygon fill="#0A3274" points="643.4,699.5 678.9,719 649.7,723 	"/>
	<polygon fill="#0D439B" points="643.4,699.5 630.2,720.2 649.7,723 	"/>
	<polygon fill="#0A3274" points="662.6,771.7 630.2,720.2 649.7,723 	"/>
	<polygon fill="#031127" points="662.6,771.7 640.9,760.6 610.2,771.1 	"/>
	<polygon fill="#07224E" points="662.6,771.7 640.9,760.6 630.2,720.2 	"/>
	<polygon fill="#052764" points="610.2,771.1 640.9,760.6 630.2,720.2 	"/>
	<polygon fill="#0A3274" points="703,658.7 678.9,719 722.3,668.5 	"/>
	<polygon fill="#07224E" points="580.1,768 586.9,747.5 610.2,771.1 	"/>
	<polygon fill="#031127" points="580.1,768 586.9,747.5 559.5,745 	"/>
	<polygon points="580.1,768 536.9,736.2 559.5,745 	"/>
	<polygon fill="#07224E" points="537.7,725.9 536.9,736.2 559.5,745 	"/>
	<polygon fill="#07224E" points="596.1,721.1 586.9,747.5 559.5,745 	"/>
	<polygon fill="#052764" points="596.1,721.1 563.5,704.6 559.5,745 	"/>
	<polygon fill="#0D439B" points="596.1,721.1 563.5,704.6 608.3,694.4 	"/>
	<polygon fill="#052764" points="596.1,721.1 630.2,720.2 608.3,694.4 	"/>
	<polygon fill="#0A3274" points="537.7,725.9 563.5,704.6 559.5,745 	"/>
	<polygon fill="#0D439B" points="537.7,725.9 563.5,704.6 529.2,680.7 	"/>
	<polygon fill="#052764" points="537.7,725.9 518.8,705.7 529.2,680.7 	"/>
	<polygon fill="#07224E" points="509.9,695.2 518.8,705.7 529.2,680.7 	"/>
	<polygon fill="#052764" points="596.1,721.1 586.9,747.5 610.2,771.1 	"/>
	<polygon fill="#07224E" points="596.1,721.1 630.2,720.2 610.2,771.1 	"/>
	<polygon fill="#3D69AF" points="474.5,518.2 465.8,522.6 507.1,606 517.6,657.7 536.5,641.4 522.5,587.8 542.3,571.2 	"/>
	<polygon fill="#052764" points="537.7,725.9 536.9,736.2 518.8,705.7 	"/>
	<polygon points="508,704 536.9,736.2 518.8,705.7 	"/>
	<polygon fill="#07224E" points="508,704 509.9,695.2 518.8,705.7 	"/>
	<polygon points="508,704 509.9,695.2 490,671.1 	"/>
	<polygon fill="#031127" points="476.4,622.7 468.5,625.6 490,671.1 	"/>
	<polygon fill="#07224E" points="476.4,622.7 468.5,625.6 471.9,597.5 	"/>
	<polygon fill="#031127" points="452.7,550.1 468.5,625.6 471.9,597.5 	"/>
	<polygon fill="#0A3274" points="452.7,550.1 458.1,538.3 471.9,597.5 	"/>
	<polygon fill="#031127" points="452.7,550.1 458.1,538.3 451.8,490.1 	"/>
	<polygon fill="#0D439B" points="560.2,654.7 571.2,647 622.3,641 622.3,652.3 	"/>
	<polygon fill="#1F55A3" points="679,654.7 680.7,648.3 622.3,641 622.3,652.3 	"/>
	<polygon fill="#6E8EC3" points="560.2,654.7 585.6,662.1 624.1,662.2 679,654.7 621.8,650.2 	"/>
	<polygon fill="#0A3274" points="618.1,623.1 600.5,599.2 619,613.3 	"/>
	<polygon fill="#0A3274" points="618.1,623.1 600.5,599.2 597.3,617.3 	"/>
	<polygon fill="#07224E" points="618.1,623.1 613.1,616.3 597.3,617.3 	"/>
	<polygon fill="#0A3274" points="582.7,606.7 600.5,599.2 597.3,617.3 	"/>
	<polygon fill="#07224E" points="598.2,612.1 613.1,616.3 597.3,617.3 	"/>
	<polygon fill="#07224E" points="598.2,612.1 582.7,606.7 597.3,617.3 	"/>
	<polygon fill="#0A3274" points="618.1,623.1 635.6,603.4 619,613.3 	"/>
	<polygon fill="#0A3274" points="618.1,623.1 635.6,603.4 638.7,618.6 	"/>
	<polygon fill="#07224E" points="618.1,623.1 637.4,612.3 638.7,618.6 	"/>
	<polygon fill="#0A3274" points="652.2,606.2 635.6,603.4 638.7,618.6 	"/>
	<polygon fill="#0A3274" points="652.2,606.2 635.6,603.4 645.8,598.8 	"/>
	<polygon fill="#07224E" points="652.2,606.2 642.8,584.8 645.8,598.8 	"/>
	<polygon fill="#0D439B" points="600.5,599.2 635.6,603.4 619,613.3 	"/>
	<polygon fill="#0D439B" points="582.7,606.7 600.5,599.2 586.2,585.9 	"/>
	<polygon fill="#3D69AF" points="582.7,606.7 581.7,580.3 586.2,585.9 	"/>
	<polygon fill="#3D69AF" points="601.5,573.9 600.5,599.2 586.2,585.9 	"/>
	<polygon fill="#3D69AF" points="601.5,573.9 600.5,599.2 625.6,590.6 	"/>
	<polygon fill="#3D69AF" points="635.6,603.4 600.5,599.2 625.6,590.6 	"/>
	<polygon fill="#6E8EC3" points="601.5,573.9 626.6,561.9 625.6,590.6 	"/>
	<polygon fill="#3D69AF" points="642.8,584.8 626.6,561.9 625.6,590.6 	"/>
	<polygon fill="#6E8EC3" points="642.8,584.8 626.6,561.9 628.4,549.5 	"/>
	<polygon fill="#0D439B" points="642.8,584.8 645.8,598.8 625.6,590.6 	"/>
	<polygon fill="#0D439B" points="635.6,603.4 645.8,598.8 625.6,590.6 	"/>
	<polygon fill="#0D439B" points="678.9,719 674,684.1 685.9,701.4 	"/>
	<polygon fill="#CFD9EB" points="673.6,506.7 688,509 683.7,495.3 	"/>
	<polygon fill="#CFD9EB" points="697.6,493.1 688,509 683.7,495.3 	"/>
	<polygon fill="#6E8EC3" points="667.4,517.2 675.2,519.3 716.2,522.6 739.4,506.4 730.8,503.9 713.5,511.9 683.1,512.1 
		673.6,506.7 	"/>
	<polygon fill="#3D69AF" points="673.6,506.7 683.1,512.1 667.4,517.2 	"/>
	<polygon fill="#CFD9EB" points="688,509 714.5,509.6 730.8,503.9 697.6,493.1 	"/>
	<polygon fill="#1F55A3" points="700.5,479 684.1,490.1 679,480 	"/>
	<polygon fill="#1F55A3" points="667.4,517.2 684.1,490.1 679,480 663,489.8 666.8,491.9 	"/>
	<polygon fill="#3D69AF" points="730.8,503.9 755.6,494.3 739.4,506.4 	"/>
	<polygon fill="#0A3274" points="755.8,465.7 773.8,390.8 766.8,475 	"/>
	<polygon fill="#1F55A3" points="727.6,377.9 773.8,390.8 718.4,456.6 	"/>
	<polygon fill="#0A3274" points="727.6,377.9 652.4,379.9 718.4,456.6 	"/>
	<polygon fill="#3D69AF" points="652.4,379.9 650,451.7 652.2,476.7 718.4,456.6 	"/>
	<polygon fill="#1F55A3" points="592.1,466.4 645.1,464.3 650,451.7 652.4,379.9 	"/>
	<polygon fill="#B3C7E0" points="545.9,379.1 652.4,379.9 592.1,466.4 	"/>
	<polygon fill="#6E8EC3" points="645.1,464.3 614.1,504.2 592.1,466.4 	"/>
	<polygon fill="#3D69AF" points="645.1,464.3 614.1,504.2 637.1,505.6 	"/>
	<polygon fill="#B3C7E0" points="545.9,379.1 501.1,466.2 592.1,466.4 	"/>
	<polygon fill="#07224E" points="592.1,466.4 501.1,466.2 549.3,515 	"/>
	<polygon opacity="0.64" fill="#6E8EC3" points="601.5,573.9 626.6,561.9 606.7,545.1 	"/>
	<polygon fill="#0A3274" points="598.2,509.6 614.1,504.2 592.1,466.4 	"/>
	<polygon fill="#052764" points="758.9,625.6 742.7,604.6 756.5,593 	"/>
	<polygon fill="#052764" points="481,553.2 474.5,518.2 465.8,522.6 	"/>
	<polygon fill="#0A3274" points="517.6,657.7 507.1,606 536.5,641.4 	"/>
	<polygon fill="#3D69AF" points="663,489.8 656,494 667.4,517.2 666.8,491.8 	"/>
	<polygon fill="#6E8EC3" points="637.1,505.6 667.4,517.2 657.9,497.9 	"/>
	<polygon fill="#9EB4D7" points="671.3,662.2 657.1,682 616,679.3 608.3,694.4 630.2,720.2 643.4,699.5 678.9,719 	"/>
	<polygon fill="#3D69AF" points="671.3,662.2 674,684.1 685.9,701.4 703,658.7 685.7,639.8 687.2,653.9 	"/>
	<polygon fill="#6E8EC3" points="618.1,623.1 597.3,617.3 582.7,606.7 581.7,580.3 576,609.3 571.6,616.3 591.6,626.3 	"/>
	<polygon fill="#0A3274" points="591.6,626.3 556,641 552.2,657.7 586.2,647 	"/>
	<polygon fill="#07224E" points="542.3,663.7 552.2,657.7 556,641 	"/>
	<polygon fill="#0D439B" points="586.2,647 591.6,626.3 614,627.2 	"/>
	<polygon fill="#07224E" points="586.2,647 610.5,639.8 614,627.2 	"/>
	<polygon fill="#052764" points="625.6,629.8 610.5,639.8 614,627.2 	"/>
	<polygon fill="#07224E" points="625.6,629.8 610.5,639.8 624.4,638.5 	"/>
	<polygon fill="#031127" points="625.6,629.8 629.8,641 624.4,638.5 	"/>
	<polygon fill="#052764" points="625.6,629.8 629.8,641 637.1,627.2 	"/>
	<polygon fill="#052764" points="637.1,641 629.8,641 637.1,627.2 	"/>
	<polygon fill="#0D439B" points="637.1,641 654.7,627.2 637.1,627.2 	"/>
	<polygon fill="#0D439B" points="637.1,641 654.7,627.2 662.2,643.7 	"/>
	<polygon fill="#052764" points="668.3,633.5 654.7,627.2 662.2,643.7 	"/>
	<polygon fill="#07224E" points="668.3,633.5 687.2,653.9 662.2,643.7 	"/>
	<polygon fill="#0D439B" points="668.3,633.5 687.2,653.9 685.7,639.8 	"/>
	<polygon fill="#07224E" points="690.8,653.8 687.2,653.9 685.7,639.8 	"/>
	<polygon fill="#0D439B" points="596.1,668.5 644.5,664.8 616,679.3 	"/>
	<polygon fill="#052764" points="631.4,680.3 644.5,664.8 616,679.3 	"/>
	<polygon fill="#1F55A3" points="651.3,487.2 652.2,476.7 652.2,476.7 645.1,464.3 635.7,488.6 637.1,505.6 	"/>
	<polygon fill="#1F55A3" points="655.8,481.3 679,480 637.1,505.6 	"/>
	<polygon fill="#1F55A3" points="495,553.2 542.3,571.2 504.1,541.1 	"/>
	<polygon fill="#1F55A3" points="495,553.2 474.5,518.2 504.1,541.1 	"/>
	<polygon fill="#0A3274" points="718.4,456.6 722,471.5 683.7,461.4 	"/>
	<polygon fill="#0D439B" points="679.5,513.3 688,509 714.5,509.6 730.8,503.9 714.4,514 	"/>
	<polygon fill="#0D439B" points="673.6,506.7 679.5,513.3 688,509 	"/>
	<polygon fill="#0A3274" points="673.6,506.7 683.7,495.3 699.3,493.7 730.8,503.9 729.8,500.2 704,489.8 684.1,490.1 675,498.2 	
		"/>
	<polygon fill="#1F55A3" points="659.5,467.2 645.8,481.3 652.2,488 665.6,488 700.5,479 655.8,481.3 652.2,476.7 	"/>
	<polygon fill="#07224E" points="679,480 652.2,476.7 655.8,481.3 	"/>
	<polygon fill="#052764" points="683.7,461.4 662.3,466.7 722,471.5 	"/>
	<polygon fill="#07224E" points="679,480 662.3,466.7 722,471.5 	"/>
	<polygon fill="#0A3274" points="659.5,467.2 679,480 662.3,466.7 	"/>
	<polygon fill="#0A3274" points="659.5,467.2 679,480 652.2,476.7 	"/>
</g>
<g id="Eye">
	<g>
		<polygon fill="#0D439B" points="684.1,495.3 684.2,500 684.8,505 699.3,493.7 		"/>
		<polygon fill="#0D439B" points="695.4,510 688.9,509 684.8,505 699.3,493.7 		"/>
		<polygon opacity="0.7" fill="#0F53B7" points="696,507.5 687.8,502.6 699.3,493.7 		"/>
		<polygon opacity="0.8" fill="#0F53B7" points="687.2,494.9 687.2,499.1 687.8,502.6 699.3,493.7 		"/>
		<polygon fill="#0D439B" points="695.4,510 703.4,510 707.7,506.4 699.3,493.7 		"/>
		<polygon fill="#0D439B" points="710.9,497.5 707.7,506.4 699.3,493.7 		"/>
		<polygon fill="#0F53B7" points="696,507.5 702.4,505.6 706.3,502.6 699.3,493.7 		"/>
		<polygon opacity="0.7" fill="#0F53B7" points="708.7,496.7 706.3,502.6 699.3,493.7 		"/>
		<polygon fill="#052764" points="689.7,501.4 688.9,494.8 699.3,493.7 706.3,496 705.3,501.4 702.5,503.9 696.6,505 		"/>
		<polygon fill="#07224E" points="696.6,505 702.5,503.9 705.3,501.4 706.3,496 699.3,493.7 		"/>
		<polygon fill="#07224E" points="688.9,494.8 698.1,498.7 699.3,493.7 		"/>
		<path d="M689.9,494.6"/>
		<polygon fill="#3D69AF" points="693.9,498 688.6,498.2 688.7,501.8 690.8,502.4 		"/>
	</g>
	<g opacity="0.3">
		<polygon fill="#052764" points="722.7,501.3 714.5,509.6 730.8,503.9 		"/>
		<polygon fill="#052764" points="673.6,506.7 685.6,501.4 683.7,495.3 		"/>
		<polygon fill="#052764" points="699.3,493.7 683.7,495.3 685.6,501.4 701.1,499.4 730.8,503.9 		"/>
	</g>
</g>
<g id="Hair_-_Shades">
	<polygon fill="#07224E" points="782.6,325.5 792.3,332.5 816.7,466.2 796.9,454.6 	"/>
	<polygon fill="#0A3274" points="816.7,466.2 827.1,383.4 792.3,332.5 	"/>
	<polygon fill="#031127" points="781.7,294.5 827.1,383.4 783.7,335.8 	"/>
	<polygon points="782.6,325.5 775.5,342.7 780.1,537.9 796.9,454.6 	"/>
	<polygon points="755.6,305.7 734.1,463.8 676.7,487.3 704.4,456.6 	"/>
	<polygon fill="#07224E" points="734.1,463.8 782.1,444.1 755.6,305.7 	"/>
	<polygon fill="#031127" points="804.6,365.5 782.1,444.1 755.6,305.7 	"/>
	<polygon fill="#07224E" points="804.6,365.5 777.4,281 755.6,305.7 	"/>
	<polygon points="709.1,248.8 777.4,281 755.6,305.7 	"/>
	<polygon points="698.6,324.7 696.6,406 647.5,484.6 673,379.9 	"/>
	<polygon fill="#031127" points="698.6,324.7 696.6,406 730.5,260.8 	"/>
	<polygon fill="#031127" points="720.3,440.8 771.9,296.8 730.5,260.8 	"/>
	<polygon fill="#07224E" points="718.4,440.8 696.6,406 647.5,484.6 	"/>
	<polygon fill="#031127" points="546.3,236 534.8,236.8 438.9,313 452.5,403.4 	"/>
	<polygon fill="#07224E" points="538.3,357.2 452.5,403.4 546.3,236 	"/>
	<polygon fill="#0A3274" points="538.3,357.2 597.2,231.7 546.3,236 	"/>
	<polygon fill="#0D439B" points="628.4,279.4 597.2,231.7 676.2,230.2 	"/>
	<polygon fill="#031127" points="532.4,477.9 538.3,357.2 596.4,370.8 	"/>
	<polygon fill="#07224E" points="596.4,370.8 597.2,231.7 538.3,357.2 	"/>
	<polygon fill="#031127" points="596.4,370.8 597.2,231.7 628.4,279.4 	"/>
	<polygon fill="#0A3274" points="596.4,370.8 671.2,301.2 628.4,279.4 	"/>
	<polygon points="532.4,477.9 467,505.2 538.3,357.2 	"/>
	<polygon fill="#031127" points="452.5,403.4 417.6,525.9 538.3,357.2 	"/>
	<polygon fill="#07224E" points="452.5,403.4 417.6,525.9 438.9,313 	"/>
	<polygon points="409.2,431.8 417.6,525.9 438.9,313 	"/>
	<polygon fill="#07224E" points="671.2,301.2 628.4,279.4 730.5,260.8 	"/>
	<polygon fill="#031127" points="673.1,345.3 671.2,301.2 730.5,260.8 	"/>
	<polygon fill="#0A3274" points="676.2,230.2 628.4,279.4 730.5,260.8 	"/>
	<polygon fill="#031127" points="780.1,537.9 816.7,466.2 796.9,454.6 	"/>
	<polygon fill="#031127" points="417.6,525.9 467,505.2 538.3,357.2 	"/>
	<polygon fill="#031127" points="417.6,525.9 467,505.2 430.7,551.5 	"/>
	<polygon fill="#031127" points="532.4,477.9 467,505.2 430.7,551.5 	"/>
	<line x1="430.7" y1="551.5" x2="417.6" y2="525.9"/>
	<line fill="#07224E" x1="415.9" y1="506.5" x2="417.6" y2="525.9"/>
	<polygon fill="#052764" points="596.4,370.8 671.2,301.2 562.3,469.6 	"/>
	<polygon fill="#031127" points="532.4,477.9 562.3,469.6 596.4,370.8 	"/>
	<polygon fill="#07224E" points="675,342.8 671.2,301.2 562.3,469.6 	"/>
	<polygon fill="#052764" points="666.8,340.5 697.6,344.2 730.5,260.8 	"/>
	<polygon fill="#07224E" points="572.7,487.9 547.9,477.5 514.8,495.9 	"/>
	<polygon fill="#07224E" points="572.7,487.9 547.9,477.5 609.5,443.5 	"/>
	<polygon fill="#07224E" points="674.4,398.3 609.5,443.5 666.8,340.5 	"/>
	<polygon fill="#031127" points="674.4,398.3 697.6,344.2 666.8,340.5 	"/>
	<polygon points="572.7,487.9 643.9,441.6 674.4,398.3 609.5,443.5 	"/>
	<polygon fill="#052764" points="666.8,340.5 609.5,443.5 547.9,477.5 	"/>
	<polygon points="417.6,525.9 393,529.8 430.7,551.5 	"/>
	<polygon fill="#0A3274" points="417.6,525.9 393,529.8 415.9,506.5 	"/>
	<polygon fill="#052764" points="718.4,440.8 696.6,406 730.5,260.8 746.1,319.7 	"/>
</g>
<g id="White_Shade">
	<polygon fill="#FFFFFF" points="627,584.9 630.8,588.9 629.2,594.4 624.4,597.3 	"/>
	<polygon fill="#CFD9EB" points="701,501.8 703.8,498.4 708.9,499.5 707.6,501.6 	"/>
</g>
</svg>
