<svg xmlns="http://www.w3.org/2000/svg" fill-rule="evenodd" height="500" width="500" version="1" viewBox="0 0 5.5555557 5.5555555"><path fill="#464342" d="M2.778.39c.623 0 1.19.238 1.615.63-.208-.007-.416.117-.425.4-.017.574.686.697.307 1.85l-.313.955-.854-2.516c-.014-.04.002-.062.05-.062h.24c.014 0 .024-.01.024-.024V1.48c0-.012-.01-.023-.023-.022-.458.02-.913.02-1.364 0-.013 0-.023.01-.023.024v.143c0 .013.01.023.023.023h.243c.052 0 .068.018.08.053l.35.96-.527 1.594L1.316 1.7c-.01-.033.002-.052.033-.052h.276c.012 0 .022-.01.022-.023v-.143c0-.014-.01-.025-.022-.024-.29.015-.582.018-.853.02C1.2.824 1.937.39 2.777.39zm2.1 1.25c.184.338.288.726.288 1.138 0 .903-.502 1.69-1.242 2.095l.745-2.11c.114-.326.22-.767.208-1.123zm-1.3 3.39c-.25.087-.52.136-.8.136-.242 0-.475-.036-.695-.103l.736-2.108.757 2.074zm-1.822-.093C.948 4.554.39 3.73.39 2.777c0-.353.076-.688.214-.99l1.152 3.15zM2.778.165c1.442 0 2.612 1.17 2.612 2.613S4.22 5.39 2.778 5.39.165 4.22.165 2.778 1.335.165 2.778.165zm0-.165C4.31 0 5.555 1.244 5.555 2.778S4.31 5.555 2.778 5.555 0 4.31 0 2.778 1.244 0 2.778 0z"/></svg>
